<svg id="Layer_1" data-name="Layer 1" xmlns="http://www.w3.org/2000/svg" viewBox="0 0 666.22 125.04"><defs><style>.cls-1{font-size:106.78px;font-family:Mont-HeavyDEMO, Mont;font-weight:800;}.cls-1,.cls-4{fill:#231f20;}.cls-2{letter-spacing:-0.06em;}.cls-3{letter-spacing:-0.03em;}</style></defs><text class="cls-1" transform="translate(0 90.77)"><tspan xml:space="preserve">C    IN S</tspan><tspan class="cls-2" x="383.25" y="0">P</tspan><tspan class="cls-3" x="446.04" y="0">A</tspan><tspan x="521.96" y="0">CE</tspan></text><path class="cls-4" d="M189,40.92a198.81,198.81,0,0,1-44.52,19.79.64.64,0,0,1-.2,0,.7.7,0,0,1-.2-1.36,197.68,197.68,0,0,0,44.4-19.77A40.61,40.61,0,0,0,185,33.1a207.14,207.14,0,0,1-21,10.82.71.71,0,0,1-.28.06.7.7,0,0,1-.64-.42.68.68,0,0,1,.35-.91,205,205,0,0,0,20.75-10.71,40.53,40.53,0,0,0-4.79-5.73A197.14,197.14,0,0,1,137.3,44.29a.64.64,0,0,1-.2,0,.7.7,0,0,1-.19-1.37A195.79,195.79,0,0,0,178.43,25.2a41,41,0,0,0-27.9-11,41.08,41.08,0,0,0-37.94,25.32,190.41,190.41,0,0,0,50.88-16.39.7.7,0,1,1,.61,1.25A192,192,0,0,1,112,41a40.73,40.73,0,0,0-1.77,22.27c.2,1,.43,2,.7,2.92,1.91-.22,3.83-.47,5.72-.74a.7.7,0,0,1,.79.59.69.69,0,0,1-.59.78c-1.82.27-3.68.51-5.52.72a40.93,40.93,0,0,0,8.58,15.06,190.38,190.38,0,0,0,30.87-6.69.7.7,0,1,1,.41,1.33,192.48,192.48,0,0,1-30.11,6.61,41.16,41.16,0,0,0,7.78,6.26,190.59,190.59,0,0,0,45.93-13.64.69.69,0,1,1,.56,1.27,191.63,191.63,0,0,1-44.62,13.47,40.7,40.7,0,0,0,19.72,5.09,41.61,41.61,0,0,0,8.08-.8,41.11,41.11,0,0,0,32.22-48.3A40.26,40.26,0,0,0,189,40.92Zm-55.9,12.29a187.9,187.9,0,0,0,18.18-5.61.7.7,0,0,1,.48,1.31c-6,2.18-12.16,4.08-18.32,5.65l-.17,0a.7.7,0,0,1-.17-1.38ZM121.9,64.62c3.15-.55,6.36-1.19,9.54-1.91a.7.7,0,0,1,.3,1.36c-3.19.72-6.43,1.37-9.61,1.92H122a.69.69,0,0,1-.68-.57A.7.7,0,0,1,121.9,64.62Zm43.37-1.88A191.28,191.28,0,0,1,121,75.05h-.1a.7.7,0,0,1-.11-1.39,189.65,189.65,0,0,0,43.91-12.22.71.71,0,0,1,.91.38A.69.69,0,0,1,165.27,62.74Zm17.87,1.5c-4.21,2.17-8.56,4.21-12.92,6.06a.66.66,0,0,1-.27.06.7.7,0,0,1-.28-1.34c4.34-1.84,8.65-3.87,12.83-6a.7.7,0,1,1,.64,1.24Z" transform="translate(-19.05 -4.31)"/></svg>